<?xml version="1.0" standalone="no"?>
<!DOCTYPE svg PUBLIC "-//W3C//DTD SVG 20010904//EN"
 "http://www.w3.org/TR/2001/REC-SVG-20010904/DTD/svg10.dtd">
<svg version="1.0" xmlns="http://www.w3.org/2000/svg"
 width="448.000000pt" height="448.000000pt" viewBox="0 0 448.000000 448.000000"
 preserveAspectRatio="xMidYMid meet">
<metadata>
Created by potrace 1.14, written by Peter Selinger 2001-2017
</metadata>
<g transform="translate(0.000000,448.000000) scale(0.100000,-0.100000)"
fill="#000000" stroke="none">
<path d="M2181 4373 c-197 -394 -380 -934 -447 -1313 -3 -14 -11 -61 -19 -105
-8 -44 -17 -105 -21 -135 -3 -30 -7 -66 -10 -80 -16 -102 -22 -403 -11 -578
l6 -102 -27 32 c-250 303 -576 547 -1017 763 -230 112 -575 248 -575 227 0
-17 59 -182 110 -307 49 -120 185 -404 232 -485 49 -82 154 -246 165 -258 7
-7 13 -17 13 -22 0 -5 6 -15 13 -22 6 -7 25 -31 42 -53 297 -398 648 -656
1023 -751 53 -14 122 -27 152 -31 30 -3 62 -7 70 -9 8 -1 40 -3 70 -3 l55 -1
62 -84 c34 -46 86 -110 115 -141 l52 -58 63 69 c35 38 87 102 115 142 l52 72
56 1 c94 2 158 11 273 38 374 89 719 335 1023 730 54 71 160 227 188 276 9 17
26 46 38 65 71 118 156 285 225 445 63 146 149 382 142 390 -2 2 -42 -10 -88
-26 -607 -210 -1166 -563 -1466 -924 -27 -33 -53 -64 -57 -69 -4 -6 -5 28 -1
75 13 154 6 486 -11 600 -3 13 -8 51 -12 84 -13 105 -23 171 -39 245 -3 14 -7
34 -9 45 -53 261 -137 542 -251 835 -71 183 -170 403 -218 488 l-23 41 -53
-106z m-412 -2448 c149 -243 214 -444 236 -728 2 -26 1 -47 -1 -47 -7 0 -56
82 -101 166 -64 123 -140 325 -168 452 -20 89 -35 166 -40 212 -4 30 -9 60
-12 65 -15 30 44 -52 86 -120z m1001 15 c-9 -58 -25 -134 -34 -170 -10 -36
-19 -72 -21 -80 -24 -102 -110 -309 -177 -427 -68 -119 -76 -127 -72 -66 13
211 55 372 145 562 42 88 168 296 175 288 1 -1 -6 -49 -16 -107z"/>
<path d="M1068 1205 c-2 -2 -30 -6 -63 -9 -33 -3 -71 -8 -85 -11 -14 -2 -41
-7 -60 -10 -197 -32 -480 -117 -672 -202 -52 -23 -74 -43 -48 -43 6 0 29 -9
53 -20 225 -103 600 -203 849 -225 125 -12 363 -6 418 10 8 2 31 7 50 10 141
23 321 99 433 184 37 29 67 54 67 56 0 9 -147 108 -203 136 -78 40 -221 87
-320 105 -71 14 -409 28 -419 19z"/>
<path d="M3118 1205 c-1 -1 -29 -6 -61 -9 -186 -18 -379 -91 -535 -203 -62
-44 -63 -45 -46 -65 54 -59 234 -155 369 -196 315 -95 740 -64 1196 89 137 45
293 111 294 122 0 11 -111 57 -267 112 -136 47 -366 106 -488 125 -41 6 -86
14 -100 16 -29 6 -356 14 -362 9z"/>
<path d="M2017 823 c-2 -1 -18 -5 -37 -8 -258 -43 -522 -307 -694 -695 -19
-41 -37 -85 -41 -97 l-6 -22 48 20 c444 186 727 466 768 759 6 42 5 46 -15 46
-11 0 -22 -1 -23 -3z"/>
<path d="M2438 819 c-15 -8 -15 -15 -1 -76 61 -271 289 -500 676 -683 132 -62
141 -63 120 -12 -171 411 -424 689 -688 756 -38 10 -75 19 -81 21 -5 2 -17 -1
-26 -6z"/>
</g>
</svg>
