<?xml version="1.0" encoding="utf-8"?>
<!-- Generator: Adobe Illustrator 25.0.1, SVG Export Plug-In . SVG Version: 6.00 Build 0)  -->
<svg version="1.1" id="Layer_1" xmlns="http://www.w3.org/2000/svg" x="0px" y="0px"
     viewBox="0 0 199 200" style="enable-background:new 0 0 199 200;" xml:space="preserve">
<style type="text/css">
	.st0{fill:#101010;}
	.st1{fill:#DDDDDD;}
</style>
<path class="st0" d="M141.93,191.93H57.17c-27.34,0-49.51-22.17-49.51-49.51V57.66c0-27.34,22.17-49.51,49.51-49.51h84.77
	c27.34,0,49.51,22.17,49.51,49.51v84.77C191.44,169.77,169.28,191.93,141.93,191.93z"/>
<path class="st1" d="M33.59,100.04c-0.01-0.89,0.12-1.78,0.39-2.63c0.5-1.7,1.54-3.16,2.91-4.21l42.07-42.07
	c3.21-3.21,8.42-3.21,11.64,0l0.42,0.42c3.21,3.21,3.21,8.42,0,11.64L62.69,91.51h94.6c4.54,0,8.23,3.68,8.23,8.23v0.59
	c0,4.54-3.68,8.23-8.23,8.23h-94.6l28.32,28.32c3.21,3.21,3.21,8.42,0,11.64l-0.42,0.42c-3.21,3.21-8.42,3.21-11.64,0l-42.07-42.07
	c-1.37-1.05-2.41-2.51-2.91-4.21C33.7,101.82,33.57,100.93,33.59,100.04z"/>
</svg>
