<?xml version="1.0" encoding="utf-8"?>
<!-- Generator: Adobe Illustrator 25.0.1, SVG Export Plug-In . SVG Version: 6.00 Build 0)  -->
<svg version="1.1" id="Layer_1" xmlns="http://www.w3.org/2000/svg" x="0px" y="0px"
     viewBox="0 0 199 200" style="enable-background:new 0 0 199 200;" xml:space="preserve">
<style type="text/css">
	.st0{fill:#161616;}
	.st1{fill:#DDDDDD;}
</style>
<path class="st0" d="M141.93,191.93H57.17c-27.34,0-49.51-22.17-49.51-49.51V57.66c0-27.34,22.17-49.51,49.51-49.51h84.77
	c27.34,0,49.51,22.17,49.51,49.51v84.77C191.44,169.77,169.28,191.93,141.93,191.93z"/>
<path class="st1" d="M141.01,102.48c0.49-0.37,0.84-0.87,1-1.44c0.11-0.35,0.16-0.65,0.15-0.97V100c0-0.31-0.04-0.62-0.13-0.91
	c-0.19-0.63-0.53-1.13-1.02-1.5l-0.28-0.25l-29-29c-1.1-1.1-2.88-1.09-3.98,0l-0.29,0.29c-1.09,1.09-1.09,2.88,0,3.98l24.4,24.4
	H59.75c-1.55,0-2.81,1.26-2.81,2.81v0.41c0,1.55,1.26,2.81,2.81,2.81h72.12l-24.41,24.41c-1.09,1.09-1.09,2.88,0,3.98l0.28,0.28
	c1.1,1.1,2.88,1.1,3.98,0l29.13-29.13L141.01,102.48z"/>
</svg>
