<?xml version="1.0" encoding="utf-8"?>
<!-- Generator: Adobe Illustrator 25.0.1, SVG Export Plug-In . SVG Version: 6.00 Build 0)  -->
<svg version="1.1" id="Layer_1" xmlns="http://www.w3.org/2000/svg" x="0px" y="0px"
     viewBox="0 0 200 200" style="enable-background:new 0 0 200 200;" xml:space="preserve">
<style type="text/css">
	.st0{fill:#DDDDDD;}
</style>
<path class="st0" d="M100.33,194.15c-5.99,0-12.05-0.57-18.15-1.76c-24.76-4.84-46.15-19.03-60.24-39.96
	C7.85,131.5,2.76,106.34,7.6,81.58c4.84-24.76,19.03-46.15,39.96-60.24C68.48,7.25,93.64,2.15,118.41,6.99
	c12.57,2.46,24.29,7.32,34.83,14.45c2.28,1.54,2.88,4.65,1.33,6.93c-1.54,2.28-4.65,2.88-6.93,1.33
	c-9.42-6.38-19.9-10.73-31.14-12.92c-22.15-4.33-44.65,0.23-63.37,12.83S21.72,61.35,17.39,83.49s0.23,44.65,12.83,63.37
	c12.6,18.72,31.73,31.41,53.88,35.74c45.71,8.93,90.17-20.99,99.1-66.71c1.62-8.28,1.99-16.71,1.12-25.06
	c-0.29-2.74,1.7-5.19,4.44-5.48c2.75-0.29,5.19,1.7,5.48,4.44c0.98,9.33,0.56,18.76-1.25,28.02
	C184.2,162.82,144.57,194.15,100.33,194.15z"/>
<path class="st0" d="M98.31,134.95c-1.28,0-2.55-0.49-3.53-1.46L49.91,88.61c-1.95-1.95-1.95-5.11,0-7.06
	c1.95-1.95,5.11-1.95,7.06,0l41.35,41.35l72.06-72.06c1.95-1.95,5.11-1.95,7.05,0c1.95,1.95,1.95,5.11,0,7.06l-75.59,75.59
	C100.87,134.46,99.59,134.95,98.31,134.95z"/>
</svg>
