<?xml version="1.0" encoding="utf-8"?>
<!-- Generator: Adobe Illustrator 25.0.1, SVG Export Plug-In . SVG Version: 6.00 Build 0)  -->
<svg version="1.1" id="Layer_1" xmlns="http://www.w3.org/2000/svg" x="0px" y="0px"
     viewBox="0 0 200 200" style="enable-background:new 0 0 200 200;" xml:space="preserve">
<style type="text/css">
	.st0{fill:#DDDDDD;}
</style>
<g>
	<path class="st0" d="M150.31,6.49h-13.12H61.88H48.75C35,6.49,23.82,17.68,23.82,31.42v137.15c0,13.75,11.18,24.93,24.93,24.93
		h101.56c13.75,0,24.93-11.18,24.93-24.93V31.42C175.24,17.68,164.06,6.49,150.31,6.49z M133.19,14.49v44.13
		c0,1.35-1.1,2.45-2.46,2.45h-62.4c-1.35,0-2.46-1.1-2.46-2.45V14.49H133.19z M167.24,168.58c0,9.33-7.59,16.93-16.93,16.93H48.75
		c-9.34,0-16.93-7.59-16.93-16.93V31.42c0-9.34,7.59-16.93,16.93-16.93h9.13v44.13c0,5.76,4.69,10.45,10.46,10.45h62.4
		c5.76,0,10.46-4.69,10.46-10.45V14.49h9.12c9.34,0,16.93,7.59,16.93,16.93V168.58z"/>
	<path class="st0" d="M74.74,152.47h-32.1c-2.21,0-4,1.79-4,4s1.79,4,4,4h32.1c2.21,0,4-1.79,4-4S76.95,152.47,74.74,152.47z"/>
</g>
</svg>
