<?xml version="1.0" encoding="utf-8"?>
<!-- Generator: Adobe Illustrator 25.0.1, SVG Export Plug-In . SVG Version: 6.00 Build 0)  -->
<svg version="1.1" id="Layer_1" xmlns="http://www.w3.org/2000/svg" x="0px" y="0px"
	 viewBox="0 0 200 200" style="enable-background:new 0 0 200 200;" xml:space="preserve">
<style type="text/css">
	.st0{display:none;}
	.st1{display:inline;fill:#DDDDDD;}
	.st2{fill:#DDDDDD;}
</style>
<g class="st0">
	<path class="st1" d="M99.3,194.34c-5.99,0-12.05-0.57-18.15-1.76C56.4,187.74,35,173.55,20.91,152.62
		C6.83,131.69,1.73,106.53,6.57,81.77c4.84-24.76,19.03-46.15,39.96-60.24C67.46,7.44,92.62,2.35,117.38,7.19
		c12.57,2.46,24.29,7.32,34.83,14.45c2.28,1.54,2.88,4.65,1.33,6.93c-1.54,2.28-4.65,2.88-6.93,1.33
		c-9.42-6.38-19.9-10.73-31.14-12.92c-22.15-4.33-44.65,0.23-63.37,12.83S20.69,61.54,16.36,83.69s0.23,44.65,12.83,63.37
		c12.6,18.72,31.73,31.41,53.88,35.74c45.71,8.93,90.17-20.99,99.1-66.71c1.62-8.28,1.99-16.71,1.12-25.06
		c-0.29-2.74,1.7-5.19,4.44-5.48c2.75-0.29,5.19,1.7,5.48,4.44c0.98,9.33,0.56,18.76-1.25,28.02
		C183.17,163.02,143.55,194.34,99.3,194.34z"/>
	<path class="st1" d="M97.29,135.15c-1.28,0-2.55-0.49-3.53-1.46L48.88,88.8c-1.95-1.95-1.95-5.11,0-7.06
		c1.95-1.95,5.11-1.95,7.06,0l41.35,41.35l72.06-72.06c1.95-1.95,5.11-1.95,7.05,0c1.95,1.95,1.95,5.11,0,7.06l-75.59,75.59
		C99.84,134.66,98.56,135.15,97.29,135.15z"/>
</g>
<g>
	<path class="st2" d="M194.68,106.08L183.92,60.9c-0.43-1.8-2.04-3.07-3.89-3.07h-38.41c-2.21,0-4,1.79-4,4v51.52H19.21
		c-2.21,0-4,1.79-4,4v26.18c0,6.98,5.58,12.66,12.44,12.66h4.68c1.84,9.75,10.27,17.15,20.37,17.15s18.53-7.4,20.37-17.15h62.42
		c1.84,9.75,10.27,17.15,20.37,17.15s18.53-7.4,20.37-17.15h4.87c7.55,0,13.7-6.25,13.7-13.94v-35.24
		C194.79,106.69,194.75,106.38,194.68,106.08z M186.79,107.48v2.47h-12.71V80.91h6.38L186.79,107.48z M52.71,163.54
		c-6.04,0-10.96-5.09-10.96-11.36s4.92-11.36,10.96-11.36s10.96,5.09,10.96,11.36S58.75,163.54,52.71,163.54z M155.86,163.54
		c-6.04,0-10.96-5.09-10.96-11.36s4.91-11.36,10.96-11.36s10.96,5.09,10.96,11.36S161.9,163.54,155.86,163.54z M181.09,148.19h-4.87
		c-1.11-5.88-4.62-10.88-9.44-13.94c-3.27-2.16-7.16-3.43-11.34-3.43c-10.21,0-18.74,7.49-20.58,17.38H73.44
		c-1.84-9.88-10.37-17.38-20.58-17.38s-18.74,7.49-20.58,17.38h-4.62c-2.45,0-4.44-2.09-4.44-4.66v-22.18h118.41c2.21,0,4-1.79,4-4
		V65.83h31.25l1.69,7.09h-8.48c-2.21,0-4,1.79-4,4v37.03c0,2.21,1.79,4,4,4h16.71v24.3C186.79,145.52,184.23,148.19,181.09,148.19z"
		/>
	<path class="st2" d="M130.97,102.9V25.85c0-2.21-1.79-4-4-4H51.56c-2.21,0-4,1.79-4,4s1.79,4,4,4h71.41V98.9H14.05V74.29
		c0-2.21-1.79-4-4-4s-4,1.79-4,4v28.61c0,2.21,1.79,4,4,4h116.92C129.18,106.9,130.97,105.11,130.97,102.9z"/>
	<path class="st2" d="M10.05,29.85H36.3c2.21,0,4-1.79,4-4s-1.79-4-4-4H10.05c-2.21,0-4,1.79-4,4S7.84,29.85,10.05,29.85z"/>
	<path class="st2" d="M10.05,48.55H30.5c2.21,0,4-1.79,4-4s-1.79-4-4-4H10.05c-2.21,0-4,1.79-4,4S7.84,48.55,10.05,48.55z"/>
	<path class="st2" d="M10.05,67.24h14.09c2.21,0,4-1.79,4-4s-1.79-4-4-4H10.05c-2.21,0-4,1.79-4,4S7.84,67.24,10.05,67.24z"/>
</g>
</svg>
