<?xml version="1.0" encoding="utf-8"?>
<!-- Generator: Adobe Illustrator 25.0.1, SVG Export Plug-In . SVG Version: 6.00 Build 0)  -->
<svg version="1.1" id="Layer_1" xmlns="http://www.w3.org/2000/svg" x="0px" y="0px"
     viewBox="0 0 200 200" style="enable-background:new 0 0 200 200;" xml:space="preserve">
<style type="text/css">
	.st0{fill:#DDDDDD;}
</style>
<path class="st0" d="M100,194.6c-52.2,0-94.6-42.4-94.6-94.6S47.8,5.4,100,5.4s94.6,42.4,94.6,94.6S152.1,194.6,100,194.6z
	 M100,15.4c-46.6,0-84.6,37.9-84.6,84.6s37.9,84.6,84.6,84.6s84.6-37.9,84.6-84.6S146.6,15.4,100,15.4z"/>
<path class="st0" d="M105.8,100l36.6-36.6c1.6-1.6,1.6-4.2,0-5.8c-1.6-1.6-4.2-1.6-5.8,0L100,94.2L63.4,57.6c-1.6-1.6-4.2-1.6-5.8,0
	c-1.6,1.6-1.6,4.2,0,5.8L94.2,100l-36.6,36.6c-1.6,1.6-1.6,4.2,0,5.8c0.8,0.8,1.8,1.2,2.9,1.2s2.1-0.4,2.9-1.2l36.6-36.6l36.6,36.6
	c0.8,0.8,1.8,1.2,2.9,1.2s2.1-0.4,2.9-1.2c1.6-1.6,1.6-4.2,0-5.8L105.8,100z"/>
</svg>
