<?xml version="1.0" encoding="utf-8"?>
<!-- Generator: Adobe Illustrator 25.0.1, SVG Export Plug-In . SVG Version: 6.00 Build 0)  -->
<svg version="1.1" id="Layer_1" xmlns="http://www.w3.org/2000/svg" x="0px" y="0px"
     viewBox="0 0 200 200" style="enable-background:new 0 0 200 200;" xml:space="preserve">
<style type="text/css">
	.st0{display:none;fill:#BBBBBB;}
	.st1{fill:#BBBBBB;}
</style>
<path class="st0" d="M100,10.3C47,10.3,4,44.2,4,86c0,37.9,35.2,69.2,81.3,74.8l0,0l0,0c0.6,0.1,1.2,0.1,1.8,0.2
	c4.9,0.8,17.1,5.2,7,28.6c0,0,30.7-6.4,78.2-54C187.1,122.4,196,105,196,86C196,44.2,153,10.3,100,10.3z M63.1,113.8h-20
	c-2,0-3.6-1.6-3.6-3.6V69.1c0-2,1.6-3.6,3.6-3.6s3.6,1.6,3.6,3.6v37.5h16.4c2,0,3.6,1.6,3.6,3.6S65.1,113.8,63.1,113.8z M81.2,110.2
	c0,2-1.6,3.6-3.6,3.6s-3.6-1.6-3.6-3.6V69.1c0-2,1.6-3.6,3.6-3.6s3.6,1.6,3.6,3.6V110.2z M128.2,110.2c0,1.6-1,3-2.5,3.4
	c-0.4,0.1-0.7,0.2-1.1,0.2c-1.2,0-2.3-0.6-3-1.5L99.5,80.5v29.7c0,2-1.6,3.6-3.6,3.6s-3.6-1.6-3.6-3.6V69.1c0-1.6,1-3,2.5-3.4
	c1.5-0.5,3.1,0.1,4,1.4L121,98.7V69.1c0-2,1.6-3.6,3.6-3.6s3.6,1.6,3.6,3.6V110.2z M160.6,86c2,0,3.6,1.6,3.6,3.6s-1.6,3.6-3.6,3.6
	h-16.4v13.3h16.4c2,0,3.6,1.6,3.6,3.6s-1.6,3.6-3.6,3.6h-20c-2,0-3.6-1.6-3.6-3.6v-41c0-2,1.6-3.6,3.6-3.6h20c2,0,3.6,1.6,3.6,3.6
	s-1.6,3.6-3.6,3.6h-16.4V86H160.6z"/>
<g>
	<g>
		<path class="st1" d="M121.1,69.1v29.6L98.9,67.1c-0.9-1.3-2.5-1.9-4-1.4c-1.5,0.4-2.5,1.8-2.5,3.4v41.1c0,2,1.6,3.6,3.6,3.6
			s3.6-1.6,3.6-3.6V80.5l22.1,31.8c0.7,0.9,1.8,1.5,3,1.5c0.4,0,0.7-0.1,1.1-0.2c1.5-0.4,2.5-1.8,2.5-3.4V69.1c0-2-1.6-3.6-3.6-3.6
			S121.1,67.1,121.1,69.1z"/>
		<path class="st1" d="M160.8,72.7c2,0,3.6-1.6,3.6-3.6s-1.6-3.6-3.6-3.6h-20c-2,0-3.6,1.6-3.6,3.6v41c0,2,1.6,3.6,3.6,3.6h20
			c2,0,3.6-1.6,3.6-3.6s-1.6-3.6-3.6-3.6h-16.4V93.2h16.4c2,0,3.6-1.6,3.6-3.6s-1.6-3.6-3.6-3.6h-16.4V72.7H160.8z"/>
		<path class="st1" d="M74.1,69.1v41.1c0,2,1.6,3.6,3.6,3.6s3.6-1.6,3.6-3.6V69.1c0-2-1.6-3.6-3.6-3.6S74.1,67.1,74.1,69.1z"/>
		<path class="st1" d="M43.2,65.5c-2,0-3.6,1.6-3.6,3.6v41.1c0,2,1.6,3.6,3.6,3.6h20c2,0,3.6-1.6,3.6-3.6s-1.6-3.6-3.6-3.6H46.9
			V69.1C46.9,67.1,45.2,65.5,43.2,65.5z"/>
	</g>
	<g>
		<path class="st1" d="M100,18.3c48.5,0,88,30.4,88,67.7c0,16-7.5,31.5-21,43.6c-0.1,0.1-0.2,0.2-0.3,0.3
			c-23.4,23.4-42.4,36.3-54.1,43c-2.4,1.4-4.6,2.5-6.6,3.5c0.4-5-0.5-9.4-2.5-13.2c-4-7.3-11.1-9.5-15-10.1
			c-0.6-0.1-1.2-0.1-1.6-0.2c-0.1,0-0.2,0-0.3,0c-0.1,0-0.2,0-0.3,0c-20.8-2.5-39.8-10.8-53.5-23.3C19.4,117.4,12,101.9,12,86
			C12,48.7,51.5,18.3,100,18.3 M100,10.3C47,10.3,4,44.2,4,86c0,37.9,35.2,69.2,81.3,74.8c0.6,0.1,1.2,0.1,1.8,0.2
			c4.9,0.8,17.1,5.2,7,28.6c0,0,30.7-6.4,78.2-54C187.1,122.4,196,105,196,86C196,44.2,153,10.3,100,10.3L100,10.3z"/>
	</g>
</g>
</svg>
