<?xml version="1.0" encoding="utf-8"?>
<!-- Generator: Adobe Illustrator 25.0.1, SVG Export Plug-In . SVG Version: 6.00 Build 0)  -->
<svg version="1.1" id="Layer_1" xmlns="http://www.w3.org/2000/svg" x="0px" y="0px"
     viewBox="0 0 200 200" style="enable-background:new 0 0 200 200;" xml:space="preserve">
<style type="text/css">
	.st0{fill:#DDDDDD;}
</style>
<path class="st0" d="M100,197.91c-1.37,0-2.68-0.56-3.62-1.56c-0.04-0.04-0.08-0.09-0.12-0.12c-2.13-2.39-51.96-58.67-62.06-111.15
	c-1.02-5.27-1.61-10.39-1.77-15.22c0-0.06,0-0.11,0-0.17c0-37.29,30.31-67.6,67.57-67.6s67.57,30.31,67.57,67.57
	c0,0.06,0,0.14,0,0.2c-0.16,4.83-0.76,9.95-1.77,15.22c-4.31,22.41-16.09,47.95-35,75.91c-14,20.69-26.56,34.69-27.09,35.27
	c-0.93,1.04-2.26,1.63-3.65,1.65C100.04,197.91,100.02,197.91,100,197.91z M42.43,69.6c0.15,4.29,0.69,8.86,1.6,13.58
	c8.15,42.37,44.15,87.98,55.97,102.06c11.76-14.02,47.84-59.78,55.98-102.06c0.91-4.73,1.45-9.3,1.6-13.59
	c-0.04-31.74-25.85-57.52-57.57-57.52C68.27,12.09,42.46,37.88,42.43,69.6z M162.57,69.69L162.57,69.69L162.57,69.69z M100,110.56
	c-20.17,0-36.58-16.41-36.58-36.58S79.83,37.41,100,37.41s36.58,16.41,36.58,36.58S120.17,110.56,100,110.56z M100,47.41
	c-14.65,0-26.58,11.92-26.58,26.58c0,14.65,11.92,26.58,26.58,26.58c14.65,0,26.58-11.92,26.58-26.58
	C126.58,59.33,114.65,47.41,100,47.41z"/>
</svg>
