<?xml version="1.0" encoding="utf-8"?>
<!-- Generator: Adobe Illustrator 25.0.1, SVG Export Plug-In . SVG Version: 6.00 Build 0)  -->
<svg version="1.1" id="Layer_1" xmlns="http://www.w3.org/2000/svg" x="0px" y="0px"
     viewBox="0 0 200 200" style="enable-background:new 0 0 200 200;" xml:space="preserve">
<style type="text/css">
	.st0{fill:#DDDDDD;}
</style>
<path class="st0" d="M197.8,30.9c0-2.5-1.9-4.6-4.3-4.9c-0.1,0-0.3,0-0.4,0c-0.1,0-0.2,0-0.3,0h-0.1H6.1H6c-2.1,0-3.9,1.3-4.7,3.2
	C1,30,0.9,31,1.1,31.9v118.2c0,5.4,1.9,10.3,5,14.2c0.2,0.3,0.4,0.7,0.6,1c0.4,0.4,0.8,0.8,1.3,1.1c4.1,4.1,9.8,6.6,16,6.6H175
	c6.2,0,11.9-2.5,16-6.6c0.5-0.3,0.9-0.7,1.3-1.1c0.2-0.3,0.4-0.6,0.6-1c3.1-3.9,5-8.8,5-14.2L197.8,30.9L197.8,30.9z M187.8,150.1
	c0,1.6-0.3,3.1-0.8,4.4l-65.5-52.9l66.3-59.5V150.1z M179.6,35.9L99.3,108L19.1,35.9H179.6z M11.9,154.5c-0.5-1.4-0.8-2.9-0.8-4.4
	V42.2l66.2,59.4L11.9,154.5z M23.9,162.9c-1.8,0-3.5-0.4-5.1-1.1l66-53.4l11.2,10c0.9,0.8,2.2,1.3,3.3,1.3s2.4-0.4,3.3-1.3
	l11.3-10.1l66.1,53.5c-1.6,0.7-3.3,1.1-5.1,1.1L23.9,162.9L23.9,162.9z"/>
</svg>
