<?xml version="1.0" encoding="utf-8"?>
<!-- Generator: Adobe Illustrator 25.0.1, SVG Export Plug-In . SVG Version: 6.00 Build 0)  -->
<svg version="1.1" id="Layer_1" xmlns="http://www.w3.org/2000/svg" x="0px" y="0px"
     viewBox="0 0 200 200" style="enable-background:new 0 0 200 200;" xml:space="preserve">
<style type="text/css">
	.st0{fill:#DDDDDD;}
</style>
<path class="st0" d="M138.6,197.5H65.8c-15.8,0-28.7-12.9-28.7-28.6V31C37.1,15.2,50,2.4,65.8,2.4h72.8c15.8,0,28.6,12.9,28.6,28.6
	v137.8C167.2,184.6,154.4,197.5,138.6,197.5z M65.8,12.4c-10.3,0-18.7,8.4-18.7,18.7v137.8c0,10.3,8.4,18.6,18.7,18.6h72.8
	c10.3,0,18.6-8.4,18.6-18.6V31c0-10.3-8.4-18.6-18.6-18.6L65.8,12.4L65.8,12.4z"/>
<path class="st0" d="M144.7,152.1h-85c-2.8,0-5-2.2-5-5V40.6c0-2.8,2.2-5,5-5h85c2.8,0,5,2.2,5,5v106.5
	C149.7,149.9,147.4,152.1,144.7,152.1z M64.7,142.1h75V45.6h-75V142.1z"/>
<path class="st0" d="M117.8,29.7H86.5c-2.8,0-5-2.2-5-5s2.2-5,5-5h31.2c2.8,0,5,2.2,5,5S120.6,29.7,117.8,29.7z"/>
<circle class="st0" cx="102.2" cy="169" r="12.5"/>
</svg>
