<?xml version="1.0" encoding="utf-8"?>
<!-- Generator: Adobe Illustrator 25.0.1, SVG Export Plug-In . SVG Version: 6.00 Build 0)  -->
<svg version="1.1" id="Layer_1" xmlns="http://www.w3.org/2000/svg" x="0px" y="0px"
     viewBox="0 0 200 200" style="enable-background:new 0 0 200 200;" xml:space="preserve">
<style type="text/css">
	.st0{fill:#BBBBBB;}
</style>
<path class="st0" d="M195.1,16.9c-1.4-1.2-3.3-1.5-5-0.9L7.4,84.9c-2,0.7-3.3,2.6-3.2,4.7c0,2.1,1.4,4,3.3,4.7l41.9,14.8l24.7,65.2
	c0,0,0,0.1,0.1,0.1c0.1,0.1,0.1,0.2,0.2,0.4c0.1,0.1,0.1,0.2,0.2,0.3s0.1,0.2,0.2,0.3s0.1,0.2,0.2,0.3s0.2,0.2,0.3,0.3
	c0.1,0.1,0.2,0.2,0.3,0.3c0.1,0.1,0.2,0.2,0.3,0.2c0.1,0.1,0.2,0.2,0.3,0.2c0,0,0.1,0,0.1,0.1c0.1,0,0.2,0.1,0.2,0.1
	c0.1,0.1,0.2,0.1,0.3,0.2c0.1,0.1,0.3,0.1,0.4,0.2c0.1,0,0.2,0.1,0.3,0.1c0.1,0,0.3,0.1,0.4,0.1s0.2,0,0.3,0.1
	c0.2,0,0.5,0.1,0.7,0.1l0,0l0,0l0,0l0,0c0.1,0,0.3,0,0.5,0c0.1,0,0.1,0,0.2,0s0.3,0,0.4-0.1c0.1,0,0.3-0.1,0.4-0.1s0.3-0.1,0.4-0.1
	s0.3-0.1,0.4-0.2c0.1-0.1,0.2-0.1,0.3-0.2c0.1-0.1,0.2-0.1,0.4-0.2c0,0,0.1,0,0.1-0.1l34.9-26.1l40.9,32c0.9,0.7,2,1.1,3.1,1.1
	c0.6,0,1.2-0.1,1.7-0.3c1.6-0.6,2.8-2,3.2-3.7L197,21.8C197.1,19.9,196.5,18.1,195.1,16.9z M127,73.9l-42.5,44.3l-0.1,0.1
	c-0.1,0.1-0.2,0.2-0.3,0.3c-0.1,0.1-0.1,0.1-0.2,0.2c0,0.1-0.1,0.1-0.1,0.2v0.1l-0.1,0.1c0,0.1-0.1,0.1-0.1,0.2
	c-0.1,0.1-0.1,0.3-0.2,0.4c0,0,0,0.1-0.1,0.1v0.1c-0.1,0.2-0.1,0.4-0.2,0.7l-6,33.3l-17.6-46.4L127,73.9z M86,160.9l1.6-8.7
	l3.9-21.4l7.4,5.8l9.6,7.6L86,160.9z M157.3,169.6l-61.8-48.5L154.2,60c1.7-1.8,1.9-4.5,0.4-6.4c-1.4-2-4.1-2.6-6.3-1.5L52.9,99.7
	L23.8,89.4l161.5-60.8L157.3,169.6z"/>
</svg>
