<?xml version="1.0" encoding="utf-8"?>
<!-- Generator: Adobe Illustrator 25.0.1, SVG Export Plug-In . SVG Version: 6.00 Build 0)  -->
<svg version="1.1" id="Layer_1" xmlns="http://www.w3.org/2000/svg" x="0px" y="0px"
     viewBox="0 0 200 200" style="enable-background:new 0 0 200 200;" xml:space="preserve">
<style type="text/css">
	.st0{fill:#DDDDDD;}
</style>
<path class="st0" d="M99.8,198.5c-54,0-98-44-98-98s43.9-98,98-98c15.4,0,30.1,3.5,43.8,10.3c2.5,1.2,3.5,4.2,2.2,6.7
	c-1.2,2.5-4.2,3.5-6.7,2.2c-12.3-6.1-25.5-9.2-39.3-9.2c-48.5,0-88,39.5-88,88s39.5,88,88,88s88-39.5,88-88c0-14.2-3.5-28.3-10-40.8
	c-1.3-2.5-0.3-5.5,2.1-6.8c2.4-1.3,5.5-0.3,6.8,2.1c7.3,13.9,11.2,29.6,11.2,45.5C197.7,154.5,153.8,198.5,99.8,198.5z"/>
<path class="st0" d="M147.4,122c-0.6,0-1.2-0.1-1.7-0.3L98,105.2c-2-0.7-3.2-2.6-3.2-4.7V32.8c0-2.8,2.2-5,5-5s5,2.2,5,5V97
	l44.4,15.3c2.6,1,3.9,3.8,2.9,6.4C151.3,120.7,149.4,122,147.4,122z"/>
</svg>
