<?xml version="1.0" encoding="utf-8"?>
<!-- Generator: Adobe Illustrator 25.0.1, SVG Export Plug-In . SVG Version: 6.00 Build 0)  -->
<svg version="1.1" id="Layer_1" xmlns="http://www.w3.org/2000/svg" x="0px" y="0px"
     viewBox="0 0 200 200" style="enable-background:new 0 0 200 200;" xml:space="preserve">
<style type="text/css">
	.st0{fill:#BBBBBB;}
</style>
<path class="st0" d="M193.6,123.5c0-26.5-26.5-48-59.2-48s-59.2,21.5-59.2,48s26.5,48,59.2,48c6,0,11.8-0.7,17.3-2.1l28.5,13
	l-9.3-21.1C184.7,152.5,193.6,138.8,193.6,123.5z M116.6,120.6c-5.1,0-9.1-4.1-9.1-9.1c0-5.1,4.1-9.1,9.1-9.1c5.1,0,9.1,4.1,9.1,9.1
	C125.8,116.5,121.7,120.6,116.6,120.6z M152.3,120.6c-5.1,0-9.1-4.1-9.1-9.1c0-5.1,4.1-9.1,9.1-9.1s9.1,4.1,9.1,9.1
	C161.4,116.5,157.3,120.6,152.3,120.6z"/>
<path class="st0" d="M134.2,65.6c3.2,0,6.3,0.2,9.3,0.5c-5.9-26.3-34.4-46.3-68.6-46.3c-38.5,0-69.7,25.3-69.7,56.5
	c0,18.1,10.5,34.1,26.8,44.5l-10.9,24.8l33.5-15.3c3,0.7,6,1.3,9.1,1.7c-0.5-2.8-0.8-5.8-0.8-8.7C62.9,91.5,94.8,65.6,134.2,65.6z
	 M97.7,44.1c5.9,0,10.8,4.8,10.8,10.8c0,5.9-4.8,10.8-10.8,10.8c-5.9,0-10.8-4.8-10.8-10.8C86.9,48.9,91.7,44.1,97.7,44.1z
	 M50.8,65.6c-5.9,0-10.8-4.8-10.8-10.8C40,48.9,44.8,44,50.8,44c5.9,0,10.8,4.8,10.8,10.8S56.8,65.6,50.8,65.6z"/>
</svg>
